<svg width="125" height="31" viewBox="0 0 125 31" fill="none" xmlns="http://www.w3.org/2000/svg">
<path d="M47.6666 22.2476C46.1448 22.2476 44.8721 21.7241 43.8485 20.677C42.8384 19.6298 42.3333 18.3348 42.3333 16.7916C42.3333 15.2485 42.8384 13.9535 43.8485 12.9063C44.8721 11.8592 46.1448 11.3356 47.6666 11.3356C48.6499 11.3356 49.5454 11.5768 50.3535 12.059C51.1616 12.5412 51.7743 13.1888 52.1919 14.0016L49.9495 15.345C49.7475 14.9178 49.4377 14.5803 49.0202 14.3323C48.6161 14.0843 48.1582 13.9603 47.6464 13.9603C46.8653 13.9603 46.2188 14.229 45.7071 14.7663C45.1953 15.2898 44.9394 15.965 44.9394 16.7916C44.9394 17.6045 45.1953 18.2796 45.7071 18.817C46.2188 19.3405 46.8653 19.6023 47.6464 19.6023C48.1717 19.6023 48.6363 19.4852 49.0404 19.251C49.4579 19.003 49.7677 18.6655 49.9697 18.2383L52.2323 19.561C51.7879 20.3738 51.1616 21.0283 50.3535 21.5243C49.5454 22.0065 48.6499 22.2476 47.6666 22.2476ZM62.0588 20.677C61.0218 21.7241 59.7558 22.2476 58.2608 22.2476C56.7659 22.2476 55.5 21.7241 54.4629 20.677C53.4394 19.6161 52.9275 18.321 52.9275 16.7916C52.9275 15.2623 53.4394 13.9741 54.4629 12.927C55.5 11.8661 56.7659 11.3356 58.2608 11.3356C59.7558 11.3356 61.0218 11.8661 62.0588 12.927C63.0959 13.9741 63.6144 15.2623 63.6144 16.7916C63.6144 18.321 63.0959 19.6161 62.0588 20.677ZM56.3012 18.8376C56.8265 19.375 57.4798 19.6436 58.2608 19.6436C59.042 19.6436 59.6952 19.375 60.2204 18.8376C60.7457 18.3003 61.0083 17.6183 61.0083 16.7916C61.0083 15.965 60.7457 15.283 60.2204 14.7456C59.6952 14.2083 59.042 13.9396 58.2608 13.9396C57.4798 13.9396 56.8265 14.2083 56.3012 14.7456C55.7895 15.283 55.5336 15.965 55.5336 16.7916C55.5336 17.6183 55.7895 18.3003 56.3012 18.8376ZM71.0639 11.3356C72.1683 11.3356 73.0774 11.7145 73.7911 12.4723C74.5184 13.2301 74.882 14.2772 74.882 15.6136V21.9583H72.276V15.9443C72.276 15.2555 72.0942 14.7318 71.7305 14.3736C71.3669 14.0016 70.8821 13.8156 70.276 13.8156C69.6026 13.8156 69.0639 14.0292 68.6598 14.4563C68.2558 14.8835 68.0538 15.5241 68.0538 16.3783V21.9583H65.4477V11.625H68.0538V12.7823C68.6869 11.8179 69.6901 11.3356 71.0639 11.3356ZM82.8851 14.1876H80.6023V18.4863C80.6023 18.8445 80.6898 19.1063 80.8649 19.2716C81.04 19.437 81.2958 19.5335 81.6326 19.561C81.9693 19.5748 82.3867 19.5678 82.8851 19.5403V21.9583C81.0938 22.165 79.8279 21.9928 79.0871 21.4416C78.3598 20.8905 77.9962 19.9055 77.9962 18.4863V14.1876H76.2386V11.625H77.9962V9.53764L80.6023 8.73164V11.625H82.8851V14.1876ZM87.4865 13.4023C87.7289 12.741 88.1261 12.245 88.6784 11.9143C89.244 11.5836 89.8703 11.4183 90.5572 11.4183V14.3943C89.7625 14.2978 89.0487 14.4632 88.4158 14.8903C87.7962 15.3175 87.4865 16.027 87.4865 17.019V21.9583H84.8804V11.625H87.4865V13.4023ZM100.312 20.677C99.2755 21.7241 98.0094 22.2476 96.5145 22.2476C95.0196 22.2476 93.7535 21.7241 92.7165 20.677C91.6929 19.6161 91.1812 18.321 91.1812 16.7916C91.1812 15.2623 91.6929 13.9741 92.7165 12.927C93.7535 11.8661 95.0196 11.3356 96.5145 11.3356C98.0094 11.3356 99.2755 11.8661 100.312 12.927C101.349 13.9741 101.868 15.2623 101.868 16.7916C101.868 18.321 101.349 19.6161 100.312 20.677ZM94.5549 18.8376C95.0802 19.375 95.7333 19.6436 96.5145 19.6436C97.2957 19.6436 97.9488 19.375 98.4741 18.8376C98.9994 18.3003 99.262 17.6183 99.262 16.7916C99.262 15.965 98.9994 15.283 98.4741 14.7456C97.9488 14.2083 97.2957 13.9396 96.5145 13.9396C95.7333 13.9396 95.0802 14.2083 94.5549 14.7456C94.0432 15.283 93.7872 15.965 93.7872 16.7916C93.7872 17.6183 94.0432 18.3003 94.5549 18.8376ZM103.701 21.9583V6.87164H106.307V21.9583H103.701ZM108.693 21.9583V6.87164H111.299V21.9583H108.693ZM115.886 17.887C116.236 19.1821 117.186 19.8296 118.735 19.8296C119.731 19.8296 120.485 19.4852 120.997 18.7963L123.098 20.0363C122.101 21.5105 120.634 22.2476 118.694 22.2476C117.024 22.2476 115.684 21.731 114.674 20.6976C113.664 19.6643 113.159 18.3623 113.159 16.7916C113.159 15.2348 113.657 13.9396 114.654 12.9063C115.65 11.8592 116.93 11.3356 118.492 11.3356C119.974 11.3356 121.192 11.8592 122.149 12.9063C123.118 13.9535 123.603 15.2485 123.603 16.7916C123.603 17.1361 123.57 17.5012 123.502 17.887H115.886ZM115.846 15.8203H120.997C120.849 15.1176 120.539 14.5941 120.068 14.2496C119.61 13.9052 119.085 13.733 118.492 13.733C117.792 13.733 117.213 13.919 116.755 14.291C116.297 14.6492 115.994 15.159 115.846 15.8203Z" fill="#23272E"/>
<path d="M14.5202 9.71391V0.0264172C7.8365 -0.333448 3.82754 3.04556 1.72538 6.36628C0.176301 8.81331 0 11.8321 0 14.7475C0 17.8384 0.174264 21.0672 1.91191 23.5959C2.97184 25.1383 4.2979 26.434 5.64384 27.4789C8.72561 29.8716 12.7098 30.3806 16.5787 30.3806C18.9874 30.3806 21.4812 30.2905 23.5965 29.1121C29.3809 25.8898 30.303 18.744 30.303 14.8806H20.202L19.8357 16.2493C19.0336 19.2473 15.8032 20.8031 13.0333 19.5256C11.9824 19.041 11.2164 18.0778 10.9663 16.9265L10.8197 16.2517C10.384 14.2457 11.1624 12.1675 12.7971 10.9731L14.5202 9.71391Z" fill="#23272E"/>
<path d="M28.1696 10.8645L19.3312 2.25344C18.506 1.4493 19.0623 0.0264282 20.202 0.0264282H29.0404C29.7378 0.0264282 30.3031 0.604727 30.3031 1.31809V9.92919C30.3031 11.0648 28.9735 11.6477 28.1696 10.8645Z" fill="#23272E"/>
</svg>
