<svg width="60" height="60" viewBox="0 0 60 60" fill="none" xmlns="http://www.w3.org/2000/svg">
<rect width="60" height="60" rx="6" fill="white"/>
<path d="M29.5202 24.7139V15.0264C22.8365 14.6666 18.8275 18.0456 16.7254 21.3663C15.1763 23.8133 15 26.8321 15 29.7475C15 32.8384 15.1743 36.0672 16.9119 38.5959C17.9718 40.1383 19.2979 41.434 20.6438 42.4789C23.7256 44.8716 27.7098 45.3806 31.5787 45.3806C33.9874 45.3806 36.4812 45.2905 38.5965 44.1121C44.3809 40.8898 45.303 33.744 45.303 29.8806H35.202L34.8357 31.2493C34.0336 34.2473 30.8032 35.8031 28.0333 34.5256C26.9824 34.041 26.2164 33.0778 25.9663 31.9265L25.8197 31.2517C25.384 29.2457 26.1624 27.1675 27.7971 25.9731L29.5202 24.7139Z" fill="#23272E"/>
<path d="M43.1696 25.8645L34.3312 17.2534C33.506 16.4493 34.0623 15.0264 35.202 15.0264H44.0404C44.7378 15.0264 45.3031 15.6047 45.3031 16.3181V24.9292C45.3031 26.0648 43.9735 26.6477 43.1696 25.8645Z" fill="#23272E"/>
</svg>
